<svg xmlns="http://www.w3.org/2000/svg" width="1024" height="1024" viewBox="0 0 1024 1024">
<g>
<path d="M 655.60 632.61 C655.16,633.76 649.42,634.00 622.69,634.00 L 590.32 634.00 L 589.20 630.25 C588.59,628.19 587.57,624.14 586.94,621.25 C586.31,618.36 585.39,615.74 584.90,615.44 C584.40,615.13 584.00,613.68 584.00,612.22 C584.00,610.75 583.10,606.62 581.99,603.03 C579.95,596.39 574.47,576.62 570.90,563.00 C569.19,556.50 567.01,549.22 565.20,544.00 C564.92,543.17 564.74,542.21 564.80,541.86 C564.87,541.51 564.01,538.14 562.89,534.36 C561.77,530.59 560.20,524.80 559.41,521.50 C558.62,518.20 557.57,514.38 557.08,513.00 C556.60,511.62 555.25,506.90 554.10,502.50 C552.94,498.10 549.29,484.60 546.00,472.50 C542.70,460.40 539.49,448.58 538.86,446.22 C538.24,443.87 537.34,441.71 536.86,441.42 C536.39,441.12 536.00,439.83 536.00,438.54 C536.00,437.25 534.39,430.42 532.43,423.35 C530.47,416.28 527.98,407.12 526.89,403.00 C524.92,395.51 522.35,386.83 521.27,384.00 C520.96,383.17 520.55,381.60 520.36,380.50 C519.83,377.32 517.89,369.69 517.06,367.50 C513.23,357.40 510.46,345.84 511.33,343.58 C511.86,342.19 515.36,342.00 539.86,342.00 L 567.78 342.00 L 568.46 344.72 C568.84,346.21 570.00,349.30 571.04,351.59 C572.08,353.88 574.04,359.52 575.38,364.13 C578.19,373.71 589.06,409.75 594.50,427.50 C596.52,434.10 599.69,444.67 601.54,451.00 C607.44,471.16 630.98,549.00 642.98,588.00 C655.28,628.01 656.16,631.13 655.60,632.61 ZM 765.22 548.88 C728.77,567.10 698.54,582.00 698.05,582.00 C696.64,582.00 696.48,579.73 696.80,564.78 L 697.11 550.82 L 732.80 533.35 C784.96,507.82 797.00,501.77 796.99,501.10 C796.99,500.77 774.49,489.29 746.99,475.59 L 697.00 450.68 L 697.00 435.34 C697.00,425.50 697.37,420.00 698.03,420.00 C699.62,420.00 826.10,482.64 833.75,487.22 L 837.00 489.16 L 837.00 500.51 C837.00,511.76 836.97,511.88 834.25,513.82 C832.74,514.89 801.68,530.67 765.22,548.88 Z" fill="rgb(2,189,243)"/>
<path d="M 520.08 342.14 C513.14,342.32 511.66,342.72 511.33,343.58 C510.46,345.84 513.23,357.40 517.06,367.50 C517.32,368.19 517.69,369.41 518.09,370.86 C517.11,367.78 516.21,366.46 515.48,367.18 C514.80,367.87 511.05,380.48 510.34,384.50 C510.05,386.15 509.18,389.02 508.40,390.87 C507.63,392.73 507.00,395.15 507.00,396.26 C507.00,397.38 506.15,401.26 505.12,404.89 C504.09,408.53 502.23,415.33 501.00,420.00 C497.27,434.16 493.89,446.25 492.33,451.00 C491.52,453.48 490.46,457.75 489.98,460.50 C489.49,463.25 488.43,467.75 487.62,470.50 C486.81,473.25 485.16,479.33 483.96,484.00 C482.77,488.67 481.21,493.85 480.50,495.50 C478.72,499.63 476.49,507.02 474.15,516.50 C471.99,525.27 467.47,542.48 465.87,548.00 C465.31,549.92 464.47,553.53 464.01,556.00 C463.54,558.47 462.45,562.17 461.58,564.22 C460.71,566.26 460.00,569.73 460.00,571.93 C460.00,574.13 459.39,577.86 458.65,580.22 C457.91,582.57 456.73,586.97 456.02,590.00 C455.32,593.03 454.35,596.00 453.86,596.62 C452.91,597.82 449.76,608.84 447.60,618.50 C445.51,627.90 443.52,631.65 440.29,632.29 C436.37,633.07 379.70,633.20 377.70,632.44 C376.39,631.94 376.17,630.88 376.61,627.16 C377.22,622.02 379.16,614.47 382.09,605.90 C383.14,602.82 384.00,599.55 384.00,598.64 C384.00,596.09 391.04,571.62 392.08,570.55 C392.58,570.03 393.00,568.55 393.00,567.28 C393.00,566.00 393.93,562.37 395.06,559.23 C396.96,553.94 397.71,550.81 399.88,539.25 C400.32,536.92 401.43,534.18 402.34,533.18 C403.26,532.16 404.00,529.69 404.00,527.64 C404.00,525.60 404.67,522.32 405.50,520.35 C406.33,518.37 406.99,516.02 406.99,515.13 C406.98,514.23 407.84,510.58 408.90,507.00 C409.97,503.42 411.80,496.67 412.98,492.00 C416.02,479.96 417.25,475.86 418.71,473.00 C419.41,471.62 419.99,469.25 419.99,467.73 C420.00,466.20 420.90,462.39 422.00,459.26 C423.10,456.13 424.00,452.70 424.00,451.64 C424.00,450.58 424.85,446.74 425.88,443.11 C426.91,439.47 428.77,432.67 430.00,428.00 C433.34,415.31 434.10,412.79 435.53,409.50 C436.24,407.85 437.07,404.80 437.36,402.72 C437.65,400.64 438.59,397.53 439.44,395.82 C440.30,394.10 441.00,391.85 441.00,390.82 C441.00,389.79 441.93,386.37 443.06,383.23 C444.19,380.08 445.52,375.48 446.01,373.00 C448.02,362.85 448.72,360.36 450.23,357.99 C451.10,356.62 452.12,353.16 452.49,350.30 C452.87,347.44 453.88,344.52 454.74,343.80 C455.97,342.78 468.14,342.43 512.03,342.18 ZM 325.80 577.80 C324.22,579.38 322.80,579.31 320.44,577.53 C319.37,576.72 317.55,576.05 316.40,576.03 C315.24,576.01 313.08,574.88 311.59,573.50 C310.11,572.12 308.22,571.00 307.38,571.00 C305.33,571.00 295.82,566.89 294.18,565.29 C293.45,564.58 292.04,564.00 291.05,564.00 C290.06,564.00 288.70,563.35 288.04,562.55 C287.38,561.75 285.25,560.58 283.30,559.94 C281.36,559.29 278.92,557.92 277.88,556.88 C276.85,555.85 275.38,555.00 274.63,555.00 C272.75,555.00 265.39,551.68 257.96,547.48 C254.58,545.57 251.24,544.00 250.55,544.00 C249.86,544.00 248.08,542.88 246.59,541.50 C245.11,540.12 243.15,539.00 242.24,539.00 C240.30,539.00 216.12,527.19 214.18,525.29 C213.45,524.58 211.65,523.70 210.18,523.33 C205.33,522.12 191.55,515.26 188.75,512.65 C185.75,509.86 185.55,508.37 186.66,496.68 C187.26,490.28 187.52,489.72 190.88,487.43 C192.85,486.10 195.45,485.00 196.66,485.00 C197.86,485.00 200.12,483.97 201.67,482.71 C203.23,481.45 209.90,477.81 216.50,474.61 C223.10,471.41 229.85,468.09 231.50,467.22 C233.15,466.36 235.18,465.33 236.00,464.95 C243.02,461.66 257.99,454.46 260.00,453.39 C261.38,452.67 268.58,449.13 276.00,445.53 C283.42,441.93 290.17,438.54 291.00,438.01 C293.39,436.45 304.27,431.32 306.90,430.51 C308.22,430.10 311.37,428.56 313.90,427.07 C320.13,423.43 321.75,422.90 324.58,423.61 C326.95,424.21 327.00,424.42 327.00,435.06 C327.00,445.89 325.85,451.00 323.41,451.00 C322.71,451.00 321.47,451.67 320.65,452.50 C319.82,453.32 318.10,454.45 316.83,455.00 C315.55,455.56 311.80,457.56 308.50,459.46 C305.20,461.35 301.96,462.93 301.30,462.95 C300.65,462.98 297.41,464.58 294.11,466.51 C290.82,468.45 286.74,470.30 285.06,470.64 C283.38,470.97 282.00,471.60 282.00,472.02 C282.00,473.03 253.76,487.00 251.72,487.00 C250.87,487.00 250.02,487.37 249.83,487.82 C249.65,488.28 245.23,490.79 240.00,493.41 C229.91,498.46 226.47,500.90 227.73,502.08 C228.15,502.49 233.23,505.21 239.00,508.13 C244.77,511.05 249.74,513.78 250.04,514.19 C250.34,514.60 252.36,515.57 254.54,516.35 C258.10,517.62 263.14,520.02 277.00,527.09 C279.48,528.36 281.75,529.74 282.05,530.18 C282.35,530.61 285.05,531.82 288.05,532.86 C293.21,534.66 308.59,542.36 314.00,545.86 C315.38,546.75 317.83,547.93 319.47,548.49 C321.10,549.05 323.46,551.03 324.72,552.90 C326.72,555.88 327.00,557.53 327.00,566.45 C327.00,573.01 326.58,577.02 325.80,577.80 ZM 567.75 341.87 L 567.78 342.00 L 544.21 342.00 ZM 519.67 377.13 C519.97,378.45 520.22,379.64 520.36,380.50 C520.55,381.60 520.96,383.17 521.27,384.00 C521.37,384.25 521.48,384.55 521.59,384.89 C521.48,384.55 521.37,384.25 521.27,384.00 C520.96,383.17 520.57,381.83 520.42,381.00 C520.17,379.62 519.92,378.32 519.67,377.13 Z" fill="rgb(47,152,253)"/>
<path d="M 328.00 566.72 C328.00,575.67 327.66,582.97 327.25,582.93 C326.84,582.89 316.15,577.78 303.50,571.56 C290.85,565.35 262.05,551.23 239.50,540.17 C216.95,529.11 195.57,518.51 192.00,516.60 L 185.50 513.14 L 184.94 488.38 L 202.22 480.01 C211.72,475.41 243.52,459.80 272.88,445.32 C302.24,430.84 326.66,419.00 327.13,419.00 C327.61,419.00 328.00,426.20 328.00,435.00 L 328.00 451.00 L 277.90 476.05 L 227.80 501.10 L 277.90 525.77 L 328.00 550.43 ZM 325.80 577.80 C326.58,577.02 327.00,573.01 327.00,566.45 C327.00,557.53 326.72,555.88 324.72,552.90 C323.46,551.03 321.10,549.05 319.47,548.49 C317.83,547.93 315.38,546.75 314.00,545.86 C308.59,542.36 293.21,534.66 288.05,532.86 C285.05,531.82 282.35,530.61 282.05,530.18 C281.75,529.74 279.48,528.36 277.00,527.09 C263.14,520.02 258.10,517.62 254.54,516.35 C252.36,515.57 250.34,514.60 250.04,514.19 C249.74,513.78 244.77,511.05 239.00,508.13 C233.23,505.21 228.15,502.49 227.73,502.08 C226.47,500.90 229.91,498.46 240.00,493.41 C245.23,490.79 249.65,488.28 249.83,487.82 C250.02,487.37 250.87,487.00 251.72,487.00 C253.76,487.00 282.00,473.03 282.00,472.02 C282.00,471.60 283.38,470.97 285.06,470.64 C286.74,470.30 290.82,468.45 294.11,466.51 C297.41,464.58 300.65,462.98 301.30,462.95 C301.96,462.93 305.20,461.35 308.50,459.46 C311.80,457.56 315.55,455.56 316.83,455.00 C318.10,454.45 319.82,453.32 320.65,452.50 C321.47,451.67 322.71,451.00 323.41,451.00 C325.85,451.00 327.00,445.89 327.00,435.06 C327.00,424.42 326.95,424.21 324.58,423.61 C321.75,422.90 320.13,423.43 313.90,427.07 C311.37,428.56 308.22,430.10 306.90,430.51 C304.27,431.32 293.39,436.45 291.00,438.01 C290.17,438.54 283.42,441.93 276.00,445.53 C268.58,449.13 261.38,452.67 260.00,453.39 C257.99,454.46 243.02,461.66 236.00,464.95 C235.18,465.33 233.15,466.36 231.50,467.22 C229.85,468.09 223.10,471.41 216.50,474.61 C209.90,477.81 203.23,481.45 201.67,482.71 C200.12,483.97 197.86,485.00 196.66,485.00 C195.45,485.00 192.85,486.10 190.88,487.43 C187.52,489.72 187.26,490.28 186.66,496.68 C185.55,508.37 185.75,509.86 188.75,512.65 C191.55,515.26 205.33,522.12 210.18,523.33 C211.65,523.70 213.45,524.58 214.18,525.29 C216.12,527.19 240.30,539.00 242.24,539.00 C243.15,539.00 245.11,540.12 246.59,541.50 C248.08,542.88 249.86,544.00 250.55,544.00 C251.24,544.00 254.58,545.57 257.96,547.48 C265.39,551.68 272.75,555.00 274.63,555.00 C275.38,555.00 276.85,555.85 277.88,556.88 C278.92,557.92 281.36,559.29 283.30,559.94 C285.25,560.58 287.38,561.75 288.04,562.55 C288.70,563.35 290.06,564.00 291.05,564.00 C292.04,564.00 293.45,564.58 294.18,565.29 C295.82,566.89 305.33,571.00 307.38,571.00 C308.22,571.00 310.11,572.12 311.59,573.50 C313.08,574.88 315.24,576.01 316.40,576.03 C317.55,576.05 319.37,576.72 320.44,577.53 C322.80,579.31 324.22,579.38 325.80,577.80 ZM 445.02 633.25 C445.01,633.66 428.77,634.00 408.93,634.00 C375.05,634.00 372.90,633.89 373.39,632.25 C373.68,631.29 375.31,625.33 377.02,619.00 C380.90,604.64 382.81,598.34 384.48,594.50 C385.19,592.85 386.55,588.12 387.49,584.00 C391.32,567.23 392.88,561.27 407.62,507.00 C416.06,475.92 423.40,449.76 423.93,448.85 C424.23,448.33 424.89,446.42 425.67,443.87 C424.73,447.26 424.00,450.66 424.00,451.64 C424.00,452.70 423.10,456.13 422.00,459.26 C420.90,462.39 420.00,466.20 419.99,467.73 C419.99,469.25 419.41,471.62 418.71,473.00 C417.25,475.86 416.02,479.96 412.98,492.00 C411.80,496.67 409.97,503.42 408.90,507.00 C407.84,510.58 406.98,514.23 406.99,515.13 C406.99,516.02 406.33,518.37 405.50,520.35 C404.67,522.32 404.00,525.60 404.00,527.64 C404.00,529.69 403.26,532.16 402.34,533.18 C401.43,534.18 400.32,536.92 399.88,539.25 C397.71,550.81 396.96,553.94 395.06,559.23 C393.93,562.37 393.00,566.00 393.00,567.28 C393.00,568.55 392.58,570.03 392.08,570.55 C391.04,571.62 384.00,596.09 384.00,598.64 C384.00,599.55 383.14,602.82 382.09,605.90 C379.16,614.47 377.22,622.02 376.61,627.16 C376.17,630.88 376.39,631.94 377.70,632.44 C379.70,633.20 436.37,633.07 440.29,632.29 C443.52,631.65 445.51,627.90 447.60,618.50 C449.76,608.84 452.91,597.82 453.86,596.62 C454.24,596.14 454.90,594.25 455.51,592.01 C455.17,593.39 454.83,594.74 454.53,596.00 C453.14,601.78 450.44,612.35 448.53,619.50 C446.61,626.65 445.03,632.84 445.02,633.25 ZM 520.08 342.14 L 512.03 342.18 C468.14,342.43 455.97,342.78 454.74,343.80 C453.88,344.52 452.87,347.44 452.49,350.30 C452.12,353.16 451.10,356.62 450.23,357.99 C448.72,360.36 448.02,362.85 446.01,373.00 C445.52,375.48 444.19,380.08 443.06,383.23 C441.93,386.37 441.00,389.79 441.00,390.82 C441.00,391.85 440.30,394.10 439.44,395.82 C438.59,397.53 437.65,400.64 437.36,402.72 C437.07,404.80 436.24,407.85 435.53,409.50 C434.63,411.56 434.00,413.32 432.84,417.45 C433.31,415.41 433.73,413.39 433.96,412.00 C434.51,408.63 450.07,350.25 452.55,342.24 C452.86,341.25 464.98,341.04 510.68,341.24 L 568.42 341.50 L 570.74 349.00 C571.60,351.78 572.85,355.86 573.97,359.57 C572.89,356.28 571.75,353.15 571.04,351.59 C570.00,349.30 568.84,346.21 568.46,344.72 L 567.78 342.00 L 567.75 341.87 L 544.21 342.00 L 539.86 342.00 C530.58,342.00 524.31,342.03 520.08,342.14 ZM 458.83 579.61 C459.49,577.26 460.00,573.95 460.00,571.93 C460.00,569.73 460.71,566.26 461.58,564.22 C462.45,562.17 463.54,558.47 464.01,556.00 C464.47,553.53 465.31,549.92 465.87,548.00 C467.47,542.48 471.99,525.27 474.15,516.50 C476.49,507.02 478.72,499.63 480.50,495.50 C481.21,493.85 482.77,488.67 483.96,484.00 C484.35,482.51 484.78,480.87 485.21,479.24 C484.27,483.22 482.41,490.59 480.71,497.00 C478.74,504.42 473.50,524.45 469.05,541.50 C464.61,558.55 460.09,575.42 459.01,579.00 C458.95,579.19 458.89,579.40 458.83,579.61 ZM 488.36 467.79 C488.99,465.32 489.63,462.46 489.98,460.50 C490.41,458.02 491.32,454.30 492.09,451.78 C491.31,454.34 490.38,458.27 489.91,461.00 C489.51,463.32 488.89,466.01 488.36,467.79 ZM 456.00 590.10 L 456.02 590.00 C456.73,586.97 457.91,582.57 458.65,580.22 C458.67,580.16 458.69,580.11 458.70,580.05 C457.97,582.57 456.96,586.33 456.00,590.10 ZM 584.88 395.82 C588.67,408.34 592.48,420.92 594.50,427.50 C592.00,419.35 588.36,407.35 584.88,395.82 Z" fill="rgb(72,148,224)"/>
<path d="M 0.00 512.00 L 0.00 0.00 L 512.00 0.00 L 1024.00 0.00 L 1024.00 512.00 L 1024.00 1024.00 L 512.00 1024.00 L 0.00 1024.00 L 0.00 512.00 ZM 445.02 633.25 C445.03,632.84 446.61,626.65 448.53,619.50 C450.44,612.35 453.14,601.78 454.53,596.00 C455.92,590.22 457.94,582.58 459.01,579.00 C460.09,575.42 464.61,558.55 469.05,541.50 C473.50,524.45 478.74,504.42 480.71,497.00 C482.68,489.58 484.87,480.85 485.58,477.62 C486.29,474.38 487.34,470.56 487.91,469.12 C488.49,467.68 489.39,464.02 489.91,461.00 C490.43,457.98 491.52,453.48 492.33,451.00 C493.89,446.25 497.26,434.17 501.00,420.00 C502.23,415.33 504.09,408.53 505.12,404.89 C506.15,401.26 507.00,397.38 507.00,396.26 C507.00,395.15 507.63,392.73 508.40,390.87 C509.18,389.02 510.05,386.15 510.34,384.50 C511.05,380.48 514.80,367.87 515.48,367.18 C516.77,365.90 518.60,371.02 520.42,381.00 C520.57,381.83 520.96,383.17 521.27,384.00 C522.35,386.82 524.92,395.50 526.89,403.00 C527.98,407.12 530.47,416.28 532.43,423.35 C534.39,430.42 536.00,437.25 536.00,438.54 C536.00,439.83 536.39,441.12 536.86,441.42 C537.34,441.71 538.24,443.87 538.86,446.22 C539.49,448.58 542.70,460.40 546.00,472.50 C549.29,484.60 552.94,498.10 554.10,502.50 C555.25,506.90 556.60,511.62 557.08,513.00 C557.57,514.38 558.62,518.20 559.41,521.50 C560.20,524.80 561.77,530.59 562.89,534.36 C564.01,538.14 564.87,541.51 564.80,541.86 C564.74,542.21 564.92,543.17 565.20,544.00 C567.01,549.22 569.19,556.50 570.90,563.00 C574.47,576.62 579.95,596.39 581.99,603.03 C583.10,606.62 584.00,610.75 584.00,612.22 C584.00,613.68 584.40,615.13 584.90,615.44 C585.39,615.74 586.31,618.36 586.94,621.25 C587.57,624.14 588.59,628.19 589.20,630.25 L 590.32 634.00 L 622.69 634.00 C649.42,634.00 655.16,633.76 655.60,632.61 C656.16,631.13 655.28,628.01 642.98,588.00 C630.98,549.00 607.44,471.16 601.54,451.00 C599.69,444.67 596.52,434.10 594.50,427.50 C590.47,414.35 579.22,377.16 575.45,364.50 C574.14,360.10 572.02,353.12 570.74,349.00 L 568.42 341.50 L 510.68 341.24 C464.98,341.04 452.86,341.25 452.55,342.24 C450.07,350.25 434.51,408.63 433.96,412.00 C433.56,414.48 432.53,418.98 431.69,422.00 C430.84,425.02 428.96,431.93 427.52,437.35 C426.08,442.76 424.46,447.94 423.93,448.85 C423.40,449.76 416.06,475.92 407.62,507.00 C392.88,561.27 391.32,567.23 387.49,584.00 C386.55,588.12 385.19,592.85 384.48,594.50 C382.81,598.34 380.90,604.64 377.02,619.00 C375.31,625.33 373.68,631.29 373.39,632.25 C372.90,633.89 375.05,634.00 408.93,634.00 C428.77,634.00 445.01,633.66 445.02,633.25 ZM 328.00 566.72 L 328.00 550.43 L 277.90 525.77 L 227.80 501.10 L 277.90 476.05 L 328.00 451.00 L 328.00 435.00 C328.00,426.20 327.61,419.00 327.13,419.00 C326.66,419.00 302.24,430.84 272.88,445.32 C243.52,459.80 211.72,475.41 202.22,480.01 L 184.94 488.38 L 185.22 500.76 L 185.50 513.14 L 192.00 516.60 C195.57,518.51 216.95,529.11 239.50,540.17 C262.05,551.23 290.85,565.35 303.50,571.56 C316.15,577.78 326.84,582.89 327.25,582.93 C327.66,582.97 328.00,575.67 328.00,566.72 ZM 765.22 548.88 C801.68,530.67 832.74,514.89 834.25,513.82 C836.97,511.88 837.00,511.76 837.00,500.51 L 837.00 489.16 L 833.75 487.22 C826.10,482.64 699.62,420.00 698.03,420.00 C697.37,420.00 697.00,425.50 697.00,435.34 L 697.00 450.68 L 746.99 475.59 C774.49,489.29 796.99,500.77 796.99,501.10 C797.00,501.77 784.96,507.82 732.80,533.35 L 697.11 550.82 L 696.80 564.78 C696.48,579.73 696.64,582.00 698.05,582.00 C698.54,582.00 728.77,567.10 765.22,548.88 Z" fill="rgb(254,254,254)"/>
</g>
</svg>